<mxfile host="Electron" modified="2024-03-08T02:43:43.502Z" agent="Mozilla/5.0 (Windows NT 10.0; Win64; x64) AppleWebKit/537.36 (KHTML, like Gecko) draw.io/23.1.5 Chrome/120.0.6099.109 Electron/28.1.0 Safari/537.36" etag="YxZcx08EfesPocmAG3fQ" version="23.1.5" type="device">
  <diagram name="Page-1" id="LtjTj9eRKkb2JfkpqfZn">
    <mxGraphModel dx="1008" dy="690" grid="1" gridSize="10" guides="1" tooltips="1" connect="1" arrows="1" fold="1" page="1" pageScale="1" pageWidth="850" pageHeight="1100" math="0" shadow="0">
      <root>
        <mxCell id="0" />
        <mxCell id="1" parent="0" />
        <mxCell id="0ZbLYWZXubwOvFgK9dOz-1" value="" style="rounded=0;whiteSpace=wrap;html=1;fillColor=#fff2cc;strokeColor=#d6b656;" parent="1" vertex="1">
          <mxGeometry x="370" y="10" width="730" height="1200" as="geometry" />
        </mxCell>
        <mxCell id="0ZbLYWZXubwOvFgK9dOz-2" value="Máy đọc thẻ từ" style="shape=umlActor;verticalLabelPosition=bottom;verticalAlign=top;html=1;outlineConnect=0;" parent="1" vertex="1">
          <mxGeometry x="260" y="970" width="50" height="90" as="geometry" />
        </mxCell>
        <mxCell id="0ZbLYWZXubwOvFgK9dOz-3" value="Nhân viên" style="shape=umlActor;verticalLabelPosition=bottom;verticalAlign=top;html=1;outlineConnect=0;" parent="1" vertex="1">
          <mxGeometry x="1170" y="930" width="50" height="100" as="geometry" />
        </mxCell>
        <mxCell id="0ZbLYWZXubwOvFgK9dOz-4" value="Quản lý" style="shape=umlActor;verticalLabelPosition=bottom;verticalAlign=top;html=1;outlineConnect=0;" parent="1" vertex="1">
          <mxGeometry x="1170" y="350" width="50" height="100" as="geometry" />
        </mxCell>
        <mxCell id="0ZbLYWZXubwOvFgK9dOz-5" value="" style="endArrow=diamondThin;endFill=0;endSize=24;html=1;rounded=0;" parent="1" source="0ZbLYWZXubwOvFgK9dOz-4" target="0ZbLYWZXubwOvFgK9dOz-3" edge="1">
          <mxGeometry width="160" relative="1" as="geometry">
            <mxPoint x="870" y="460" as="sourcePoint" />
            <mxPoint x="1030" y="460" as="targetPoint" />
          </mxGeometry>
        </mxCell>
        <mxCell id="0ZbLYWZXubwOvFgK9dOz-6" value="Thống kê báo cáo" style="ellipse;whiteSpace=wrap;html=1;" parent="1" vertex="1">
          <mxGeometry x="960" y="35" width="90" height="60" as="geometry" />
        </mxCell>
        <mxCell id="0ZbLYWZXubwOvFgK9dOz-7" value="Thống kê số lượng khách hàng đi tập" style="ellipse;whiteSpace=wrap;html=1;" parent="1" vertex="1">
          <mxGeometry x="727.5" y="110" width="115" height="60" as="geometry" />
        </mxCell>
        <mxCell id="0ZbLYWZXubwOvFgK9dOz-8" value="Báo cáo doanh thu" style="ellipse;whiteSpace=wrap;html=1;" parent="1" vertex="1">
          <mxGeometry x="727.5" y="45" width="75" height="50" as="geometry" />
        </mxCell>
        <mxCell id="0ZbLYWZXubwOvFgK9dOz-9" value="Quản lí thông tin nhân viên" style="ellipse;whiteSpace=wrap;html=1;" parent="1" vertex="1">
          <mxGeometry x="930" y="120" width="90" height="60" as="geometry" />
        </mxCell>
        <mxCell id="0ZbLYWZXubwOvFgK9dOz-10" value="Quản lí thông tin huấn luyện viên" style="ellipse;whiteSpace=wrap;html=1;" parent="1" vertex="1">
          <mxGeometry x="840" y="170" width="100" height="70" as="geometry" />
        </mxCell>
        <mxCell id="0ZbLYWZXubwOvFgK9dOz-11" value="Quản lí môn tập" style="ellipse;whiteSpace=wrap;html=1;" parent="1" vertex="1">
          <mxGeometry x="960" y="330" width="80" height="50" as="geometry" />
        </mxCell>
        <mxCell id="0ZbLYWZXubwOvFgK9dOz-12" value="Quản lí dịch vụ" style="ellipse;whiteSpace=wrap;html=1;" parent="1" vertex="1">
          <mxGeometry x="910" y="580" width="110" height="40" as="geometry" />
        </mxCell>
        <mxCell id="0ZbLYWZXubwOvFgK9dOz-13" value="Thêm môn tập" style="ellipse;whiteSpace=wrap;html=1;" parent="1" vertex="1">
          <mxGeometry x="840" y="260" width="100" height="40" as="geometry" />
        </mxCell>
        <mxCell id="0ZbLYWZXubwOvFgK9dOz-14" value="Xóa môn tập" style="ellipse;whiteSpace=wrap;html=1;" parent="1" vertex="1">
          <mxGeometry x="750" y="310" width="90" height="40" as="geometry" />
        </mxCell>
        <mxCell id="0ZbLYWZXubwOvFgK9dOz-15" value="Cập nhật môn tập" style="ellipse;whiteSpace=wrap;html=1;" parent="1" vertex="1">
          <mxGeometry x="957.5" y="450" width="75" height="40" as="geometry" />
        </mxCell>
        <mxCell id="0ZbLYWZXubwOvFgK9dOz-16" value="Tra cứu thông tin môn tập" style="ellipse;whiteSpace=wrap;html=1;" parent="1" vertex="1">
          <mxGeometry x="760" y="410" width="100" height="50" as="geometry" />
        </mxCell>
        <mxCell id="0ZbLYWZXubwOvFgK9dOz-19" value="Xóa dịch vụ" style="ellipse;whiteSpace=wrap;html=1;" parent="1" vertex="1">
          <mxGeometry x="700" y="570" width="100" height="40" as="geometry" />
        </mxCell>
        <mxCell id="0ZbLYWZXubwOvFgK9dOz-20" value="Thêm dịch vụ" style="ellipse;whiteSpace=wrap;html=1;" parent="1" vertex="1">
          <mxGeometry x="782.5" y="510" width="110" height="40" as="geometry" />
        </mxCell>
        <mxCell id="0ZbLYWZXubwOvFgK9dOz-21" value="Cập nhật dịch vụ" style="ellipse;whiteSpace=wrap;html=1;" parent="1" vertex="1">
          <mxGeometry x="930" y="690" width="110" height="50" as="geometry" />
        </mxCell>
        <mxCell id="0ZbLYWZXubwOvFgK9dOz-22" value="Tra cứu thông tin dịch vụ" style="ellipse;whiteSpace=wrap;html=1;" parent="1" vertex="1">
          <mxGeometry x="700" y="690" width="110" height="50" as="geometry" />
        </mxCell>
        <mxCell id="0ZbLYWZXubwOvFgK9dOz-24" value="Đăng ký dịch vụ cho khách hàng" style="ellipse;whiteSpace=wrap;html=1;" parent="1" vertex="1">
          <mxGeometry x="560" y="980" width="110" height="70" as="geometry" />
        </mxCell>
        <mxCell id="0ZbLYWZXubwOvFgK9dOz-25" value="Quản lí thông tin hội viên" style="ellipse;whiteSpace=wrap;html=1;" parent="1" vertex="1">
          <mxGeometry x="840" y="950" width="130" height="50" as="geometry" />
        </mxCell>
        <mxCell id="0ZbLYWZXubwOvFgK9dOz-26" value="Thêm hội viên" style="ellipse;whiteSpace=wrap;html=1;" parent="1" vertex="1">
          <mxGeometry x="995" y="880" width="85" height="40" as="geometry" />
        </mxCell>
        <mxCell id="0ZbLYWZXubwOvFgK9dOz-27" value="Xóa hội viên" style="ellipse;whiteSpace=wrap;html=1;" parent="1" vertex="1">
          <mxGeometry x="892.5" y="830" width="102.5" height="40" as="geometry" />
        </mxCell>
        <mxCell id="0ZbLYWZXubwOvFgK9dOz-28" value="Cập nhật thông tin hội viên" style="ellipse;whiteSpace=wrap;html=1;" parent="1" vertex="1">
          <mxGeometry x="710" y="900" width="100" height="60" as="geometry" />
        </mxCell>
        <mxCell id="0ZbLYWZXubwOvFgK9dOz-29" value="Tra cứu thông tin hội viên" style="ellipse;whiteSpace=wrap;html=1;" parent="1" vertex="1">
          <mxGeometry x="720" y="790" width="100" height="60" as="geometry" />
        </mxCell>
        <mxCell id="0ZbLYWZXubwOvFgK9dOz-30" value="Tạm ngưng dịch vụ cho khách hàng" style="ellipse;whiteSpace=wrap;html=1;" parent="1" vertex="1">
          <mxGeometry x="970" y="1050" width="110" height="50" as="geometry" />
        </mxCell>
        <mxCell id="0ZbLYWZXubwOvFgK9dOz-31" value="Kích hoạt lại dịch vụ cho khách hàng" style="ellipse;whiteSpace=wrap;html=1;" parent="1" vertex="1">
          <mxGeometry x="840" y="1070" width="112.5" height="60" as="geometry" />
        </mxCell>
        <mxCell id="0ZbLYWZXubwOvFgK9dOz-32" value="Theo dõi thời gian tập của khách hàng" style="ellipse;whiteSpace=wrap;html=1;" parent="1" vertex="1">
          <mxGeometry x="630" y="1100" width="125" height="60" as="geometry" />
        </mxCell>
        <mxCell id="0ZbLYWZXubwOvFgK9dOz-35" value="&lt;b&gt;&lt;font style=&quot;font-size: 17px;&quot;&gt;Hệ thống quản lí phòng tập GYM&lt;/font&gt;&lt;/b&gt;" style="text;html=1;align=center;verticalAlign=middle;whiteSpace=wrap;rounded=0;" parent="1" vertex="1">
          <mxGeometry x="587.5" y="10" width="290" height="30" as="geometry" />
        </mxCell>
        <mxCell id="0ZbLYWZXubwOvFgK9dOz-37" value="" style="endArrow=none;html=1;rounded=0;entryX=0.25;entryY=0.1;entryDx=0;entryDy=0;entryPerimeter=0;" parent="1" source="0ZbLYWZXubwOvFgK9dOz-6" target="0ZbLYWZXubwOvFgK9dOz-4" edge="1">
          <mxGeometry width="50" height="50" relative="1" as="geometry">
            <mxPoint x="860" y="300" as="sourcePoint" />
            <mxPoint x="910" y="250" as="targetPoint" />
          </mxGeometry>
        </mxCell>
        <mxCell id="0ZbLYWZXubwOvFgK9dOz-38" value="" style="endArrow=none;html=1;rounded=0;" parent="1" source="0ZbLYWZXubwOvFgK9dOz-4" target="0ZbLYWZXubwOvFgK9dOz-9" edge="1">
          <mxGeometry width="50" height="50" relative="1" as="geometry">
            <mxPoint x="860" y="300" as="sourcePoint" />
            <mxPoint x="910" y="250" as="targetPoint" />
          </mxGeometry>
        </mxCell>
        <mxCell id="0ZbLYWZXubwOvFgK9dOz-39" value="" style="endArrow=none;html=1;rounded=0;" parent="1" source="0ZbLYWZXubwOvFgK9dOz-4" target="0ZbLYWZXubwOvFgK9dOz-10" edge="1">
          <mxGeometry width="50" height="50" relative="1" as="geometry">
            <mxPoint x="1210" y="401" as="sourcePoint" />
            <mxPoint x="1026" y="261" as="targetPoint" />
          </mxGeometry>
        </mxCell>
        <mxCell id="0ZbLYWZXubwOvFgK9dOz-40" value="" style="endArrow=none;html=1;rounded=0;" parent="1" source="0ZbLYWZXubwOvFgK9dOz-4" target="0ZbLYWZXubwOvFgK9dOz-11" edge="1">
          <mxGeometry width="50" height="50" relative="1" as="geometry">
            <mxPoint x="1220" y="411" as="sourcePoint" />
            <mxPoint x="1040" y="341" as="targetPoint" />
          </mxGeometry>
        </mxCell>
        <mxCell id="0ZbLYWZXubwOvFgK9dOz-41" value="&amp;lt;&amp;lt;extend&amp;gt;&amp;gt;" style="endArrow=open;endSize=16;endFill=0;html=1;rounded=0;entryX=0;entryY=0.5;entryDx=0;entryDy=0;dashed=1;" parent="1" source="0ZbLYWZXubwOvFgK9dOz-8" target="0ZbLYWZXubwOvFgK9dOz-6" edge="1">
          <mxGeometry width="160" relative="1" as="geometry">
            <mxPoint x="810" y="190" as="sourcePoint" />
            <mxPoint x="970" y="190" as="targetPoint" />
          </mxGeometry>
        </mxCell>
        <mxCell id="0ZbLYWZXubwOvFgK9dOz-42" value="&amp;lt;&amp;lt;extend&amp;gt;&amp;gt;" style="endArrow=open;endSize=16;endFill=0;html=1;rounded=0;entryX=0;entryY=1;entryDx=0;entryDy=0;dashed=1;" parent="1" source="0ZbLYWZXubwOvFgK9dOz-7" target="0ZbLYWZXubwOvFgK9dOz-6" edge="1">
          <mxGeometry width="160" relative="1" as="geometry">
            <mxPoint x="810" y="270" as="sourcePoint" />
            <mxPoint x="970" y="270" as="targetPoint" />
          </mxGeometry>
        </mxCell>
        <mxCell id="0ZbLYWZXubwOvFgK9dOz-43" value="&amp;lt;&amp;lt;extend&amp;gt;&amp;gt;" style="endArrow=open;endFill=0;html=1;rounded=0;dashed=1;" parent="1" source="0ZbLYWZXubwOvFgK9dOz-13" target="0ZbLYWZXubwOvFgK9dOz-11" edge="1">
          <mxGeometry width="160" relative="1" as="geometry">
            <mxPoint x="901" y="139" as="sourcePoint" />
            <mxPoint x="963" y="326" as="targetPoint" />
          </mxGeometry>
        </mxCell>
        <mxCell id="0ZbLYWZXubwOvFgK9dOz-44" value="&amp;lt;&amp;lt;extend&amp;gt;&amp;gt;" style="endArrow=open;endFill=0;html=1;rounded=0;entryX=0.033;entryY=0.724;entryDx=0;entryDy=0;entryPerimeter=0;dashed=1;" parent="1" source="0ZbLYWZXubwOvFgK9dOz-14" target="0ZbLYWZXubwOvFgK9dOz-11" edge="1">
          <mxGeometry width="160" relative="1" as="geometry">
            <mxPoint x="912" y="321" as="sourcePoint" />
            <mxPoint x="973" y="336" as="targetPoint" />
          </mxGeometry>
        </mxCell>
        <mxCell id="0ZbLYWZXubwOvFgK9dOz-45" value="&amp;lt;&amp;lt;extend&amp;gt;&amp;gt;" style="endArrow=open;endFill=0;html=1;rounded=0;dashed=1;" parent="1" source="0ZbLYWZXubwOvFgK9dOz-15" target="0ZbLYWZXubwOvFgK9dOz-11" edge="1">
          <mxGeometry width="160" relative="1" as="geometry">
            <mxPoint x="920" y="402" as="sourcePoint" />
            <mxPoint x="973" y="356" as="targetPoint" />
          </mxGeometry>
        </mxCell>
        <mxCell id="0ZbLYWZXubwOvFgK9dOz-46" value="&amp;lt;&amp;lt;extend&amp;gt;&amp;gt;" style="endArrow=open;endFill=0;html=1;rounded=0;dashed=1;exitX=1;exitY=0.5;exitDx=0;exitDy=0;" parent="1" source="0ZbLYWZXubwOvFgK9dOz-16" target="0ZbLYWZXubwOvFgK9dOz-11" edge="1">
          <mxGeometry width="160" relative="1" as="geometry">
            <mxPoint x="938" y="471" as="sourcePoint" />
            <mxPoint x="997" y="369" as="targetPoint" />
          </mxGeometry>
        </mxCell>
        <mxCell id="0ZbLYWZXubwOvFgK9dOz-49" value="&amp;lt;&amp;lt;include&amp;gt;&amp;gt;" style="endArrow=open;endSize=12;dashed=1;html=1;rounded=0;exitX=0.45;exitY=0.044;exitDx=0;exitDy=0;exitPerimeter=0;" parent="1" source="0ZbLYWZXubwOvFgK9dOz-16" target="0ZbLYWZXubwOvFgK9dOz-14" edge="1">
          <mxGeometry width="160" relative="1" as="geometry">
            <mxPoint x="810" y="270" as="sourcePoint" />
            <mxPoint x="970" y="270" as="targetPoint" />
          </mxGeometry>
        </mxCell>
        <mxCell id="0ZbLYWZXubwOvFgK9dOz-50" value="&amp;lt;&amp;lt;include&amp;gt;&amp;gt;" style="endArrow=open;endSize=12;dashed=1;html=1;rounded=0;exitX=0.754;exitY=0.956;exitDx=0;exitDy=0;exitPerimeter=0;" parent="1" source="0ZbLYWZXubwOvFgK9dOz-16" target="0ZbLYWZXubwOvFgK9dOz-15" edge="1">
          <mxGeometry width="160" relative="1" as="geometry">
            <mxPoint x="815" y="412" as="sourcePoint" />
            <mxPoint x="808" y="360" as="targetPoint" />
          </mxGeometry>
        </mxCell>
        <mxCell id="0ZbLYWZXubwOvFgK9dOz-51" value="" style="endArrow=none;html=1;rounded=0;" parent="1" source="0ZbLYWZXubwOvFgK9dOz-4" target="0ZbLYWZXubwOvFgK9dOz-12" edge="1">
          <mxGeometry width="50" height="50" relative="1" as="geometry">
            <mxPoint x="1240" y="420" as="sourcePoint" />
            <mxPoint x="1045" y="357" as="targetPoint" />
          </mxGeometry>
        </mxCell>
        <mxCell id="0ZbLYWZXubwOvFgK9dOz-52" value="&amp;lt;&amp;lt;extend&amp;gt;&amp;gt;" style="endArrow=open;endFill=0;html=1;rounded=0;dashed=1;" parent="1" source="0ZbLYWZXubwOvFgK9dOz-20" target="0ZbLYWZXubwOvFgK9dOz-12" edge="1">
          <mxGeometry width="160" relative="1" as="geometry">
            <mxPoint x="1006" y="460" as="sourcePoint" />
            <mxPoint x="1009" y="370" as="targetPoint" />
          </mxGeometry>
        </mxCell>
        <mxCell id="0ZbLYWZXubwOvFgK9dOz-53" value="&amp;lt;&amp;lt;extend&amp;gt;&amp;gt;" style="endArrow=open;endFill=0;html=1;rounded=0;dashed=1;entryX=-0.015;entryY=0.355;entryDx=0;entryDy=0;entryPerimeter=0;" parent="1" source="0ZbLYWZXubwOvFgK9dOz-19" target="0ZbLYWZXubwOvFgK9dOz-12" edge="1">
          <mxGeometry width="160" relative="1" as="geometry">
            <mxPoint x="937" y="568" as="sourcePoint" />
            <mxPoint x="988" y="612" as="targetPoint" />
          </mxGeometry>
        </mxCell>
        <mxCell id="0ZbLYWZXubwOvFgK9dOz-54" value="&amp;lt;&amp;lt;extend&amp;gt;&amp;gt;" style="endArrow=open;endFill=0;html=1;rounded=0;dashed=1;entryX=0.287;entryY=0.965;entryDx=0;entryDy=0;entryPerimeter=0;" parent="1" source="0ZbLYWZXubwOvFgK9dOz-22" target="0ZbLYWZXubwOvFgK9dOz-12" edge="1">
          <mxGeometry width="160" relative="1" as="geometry">
            <mxPoint x="866" y="608" as="sourcePoint" />
            <mxPoint x="953" y="624" as="targetPoint" />
          </mxGeometry>
        </mxCell>
        <mxCell id="0ZbLYWZXubwOvFgK9dOz-55" value="&amp;lt;&amp;lt;extend&amp;gt;&amp;gt;" style="endArrow=open;endFill=0;html=1;rounded=0;dashed=1;entryX=0.5;entryY=1;entryDx=0;entryDy=0;" parent="1" source="0ZbLYWZXubwOvFgK9dOz-21" target="0ZbLYWZXubwOvFgK9dOz-12" edge="1">
          <mxGeometry width="160" relative="1" as="geometry">
            <mxPoint x="883" y="676" as="sourcePoint" />
            <mxPoint x="963" y="634" as="targetPoint" />
          </mxGeometry>
        </mxCell>
        <mxCell id="0ZbLYWZXubwOvFgK9dOz-56" value="&amp;lt;&amp;lt;include&amp;gt;&amp;gt;" style="endArrow=open;endSize=12;dashed=1;html=1;rounded=0;" parent="1" source="0ZbLYWZXubwOvFgK9dOz-22" target="0ZbLYWZXubwOvFgK9dOz-19" edge="1">
          <mxGeometry width="160" relative="1" as="geometry">
            <mxPoint x="810" y="590" as="sourcePoint" />
            <mxPoint x="970" y="590" as="targetPoint" />
          </mxGeometry>
        </mxCell>
        <mxCell id="0ZbLYWZXubwOvFgK9dOz-57" value="&amp;lt;&amp;lt;include&amp;gt;&amp;gt;" style="endArrow=open;endSize=12;dashed=1;html=1;rounded=0;" parent="1" source="0ZbLYWZXubwOvFgK9dOz-22" target="0ZbLYWZXubwOvFgK9dOz-21" edge="1">
          <mxGeometry width="160" relative="1" as="geometry">
            <mxPoint x="840" y="670" as="sourcePoint" />
            <mxPoint x="826" y="620" as="targetPoint" />
          </mxGeometry>
        </mxCell>
        <mxCell id="0ZbLYWZXubwOvFgK9dOz-58" value="" style="endArrow=none;html=1;rounded=0;" parent="1" source="0ZbLYWZXubwOvFgK9dOz-25" target="0ZbLYWZXubwOvFgK9dOz-3" edge="1">
          <mxGeometry width="50" height="50" relative="1" as="geometry">
            <mxPoint x="860" y="860" as="sourcePoint" />
            <mxPoint x="910" y="810" as="targetPoint" />
          </mxGeometry>
        </mxCell>
        <mxCell id="0ZbLYWZXubwOvFgK9dOz-60" value="&amp;lt;&amp;lt;extend&amp;gt;&amp;gt;" style="endArrow=open;endFill=0;html=1;rounded=0;dashed=1;" parent="1" source="0ZbLYWZXubwOvFgK9dOz-27" target="0ZbLYWZXubwOvFgK9dOz-25" edge="1">
          <mxGeometry width="160" relative="1" as="geometry">
            <mxPoint x="880" y="685" as="sourcePoint" />
            <mxPoint x="963" y="634" as="targetPoint" />
          </mxGeometry>
        </mxCell>
        <mxCell id="0ZbLYWZXubwOvFgK9dOz-61" value="&amp;lt;&amp;lt;extend&amp;gt;&amp;gt;" style="endArrow=open;endFill=0;html=1;rounded=0;dashed=1;entryX=0.734;entryY=-0.004;entryDx=0;entryDy=0;entryPerimeter=0;" parent="1" source="0ZbLYWZXubwOvFgK9dOz-26" target="0ZbLYWZXubwOvFgK9dOz-25" edge="1">
          <mxGeometry width="160" relative="1" as="geometry">
            <mxPoint x="886" y="920" as="sourcePoint" />
            <mxPoint x="906" y="970" as="targetPoint" />
          </mxGeometry>
        </mxCell>
        <mxCell id="0ZbLYWZXubwOvFgK9dOz-62" value="&amp;lt;&amp;lt;extend&amp;gt;&amp;gt;" style="endArrow=open;endFill=0;html=1;rounded=0;dashed=1;entryX=0.285;entryY=0.076;entryDx=0;entryDy=0;entryPerimeter=0;" parent="1" source="0ZbLYWZXubwOvFgK9dOz-29" target="0ZbLYWZXubwOvFgK9dOz-25" edge="1">
          <mxGeometry width="160" relative="1" as="geometry">
            <mxPoint x="886" y="920" as="sourcePoint" />
            <mxPoint x="906" y="970" as="targetPoint" />
          </mxGeometry>
        </mxCell>
        <mxCell id="0ZbLYWZXubwOvFgK9dOz-63" value="&amp;lt;&amp;lt;extend&amp;gt;&amp;gt;" style="endArrow=open;endFill=0;html=1;rounded=0;dashed=1;" parent="1" source="0ZbLYWZXubwOvFgK9dOz-28" target="0ZbLYWZXubwOvFgK9dOz-25" edge="1">
          <mxGeometry x="0.0081" width="160" relative="1" as="geometry">
            <mxPoint x="773" y="943" as="sourcePoint" />
            <mxPoint x="840" y="990" as="targetPoint" />
            <mxPoint as="offset" />
          </mxGeometry>
        </mxCell>
        <mxCell id="0ZbLYWZXubwOvFgK9dOz-64" value="&amp;lt;&amp;lt;include&amp;gt;&amp;gt;" style="endArrow=open;endSize=12;dashed=1;html=1;rounded=0;exitX=0;exitY=1;exitDx=0;exitDy=0;" parent="1" source="0ZbLYWZXubwOvFgK9dOz-29" target="0ZbLYWZXubwOvFgK9dOz-28" edge="1">
          <mxGeometry x="-0.0091" width="160" relative="1" as="geometry">
            <mxPoint x="810" y="910" as="sourcePoint" />
            <mxPoint x="970" y="910" as="targetPoint" />
            <mxPoint as="offset" />
          </mxGeometry>
        </mxCell>
        <mxCell id="0ZbLYWZXubwOvFgK9dOz-65" value="&amp;lt;&amp;lt;include&amp;gt;&amp;gt;" style="endArrow=open;endSize=12;dashed=1;html=1;rounded=0;exitX=1;exitY=0.5;exitDx=0;exitDy=0;entryX=0;entryY=1;entryDx=0;entryDy=0;" parent="1" source="0ZbLYWZXubwOvFgK9dOz-29" target="0ZbLYWZXubwOvFgK9dOz-27" edge="1">
          <mxGeometry x="-0.0091" width="160" relative="1" as="geometry">
            <mxPoint x="775" y="911" as="sourcePoint" />
            <mxPoint x="741" y="953" as="targetPoint" />
            <mxPoint as="offset" />
          </mxGeometry>
        </mxCell>
        <mxCell id="0ZbLYWZXubwOvFgK9dOz-66" value="&amp;lt;&amp;lt;extend&amp;gt;&amp;gt;" style="endArrow=open;endFill=0;html=1;rounded=0;dashed=1;entryX=0.82;entryY=0.86;entryDx=0;entryDy=0;entryPerimeter=0;" parent="1" source="0ZbLYWZXubwOvFgK9dOz-30" target="0ZbLYWZXubwOvFgK9dOz-25" edge="1">
          <mxGeometry x="0.0144" width="160" relative="1" as="geometry">
            <mxPoint x="768" y="987" as="sourcePoint" />
            <mxPoint x="850" y="1000" as="targetPoint" />
            <mxPoint as="offset" />
          </mxGeometry>
        </mxCell>
        <mxCell id="0ZbLYWZXubwOvFgK9dOz-67" value="&amp;lt;&amp;lt;extend&amp;gt;&amp;gt;" style="endArrow=open;endFill=0;html=1;rounded=0;dashed=1;" parent="1" source="0ZbLYWZXubwOvFgK9dOz-31" target="0ZbLYWZXubwOvFgK9dOz-25" edge="1">
          <mxGeometry x="0.0144" width="160" relative="1" as="geometry">
            <mxPoint x="1007" y="1081" as="sourcePoint" />
            <mxPoint x="957" y="1013" as="targetPoint" />
            <mxPoint as="offset" />
          </mxGeometry>
        </mxCell>
        <mxCell id="0ZbLYWZXubwOvFgK9dOz-68" value="&amp;lt;&amp;lt;extend&amp;gt;&amp;gt;" style="endArrow=open;endFill=0;html=1;rounded=0;dashed=1;" parent="1" source="0ZbLYWZXubwOvFgK9dOz-32" target="0ZbLYWZXubwOvFgK9dOz-25" edge="1">
          <mxGeometry x="0.0144" width="160" relative="1" as="geometry">
            <mxPoint x="924" y="1090" as="sourcePoint" />
            <mxPoint x="850" y="1000" as="targetPoint" />
            <mxPoint as="offset" />
          </mxGeometry>
        </mxCell>
        <mxCell id="0ZbLYWZXubwOvFgK9dOz-69" value="&amp;lt;&amp;lt;extend&amp;gt;&amp;gt;" style="endArrow=open;endFill=0;html=1;rounded=0;dashed=1;" parent="1" source="0ZbLYWZXubwOvFgK9dOz-24" target="0ZbLYWZXubwOvFgK9dOz-25" edge="1">
          <mxGeometry x="0.0081" width="160" relative="1" as="geometry">
            <mxPoint x="768" y="987" as="sourcePoint" />
            <mxPoint x="850" y="1000" as="targetPoint" />
            <mxPoint as="offset" />
          </mxGeometry>
        </mxCell>
        <mxCell id="0ZbLYWZXubwOvFgK9dOz-70" value="" style="endArrow=none;html=1;rounded=0;" parent="1" source="0ZbLYWZXubwOvFgK9dOz-2" target="0ZbLYWZXubwOvFgK9dOz-32" edge="1">
          <mxGeometry width="50" height="50" relative="1" as="geometry">
            <mxPoint x="600" y="940" as="sourcePoint" />
            <mxPoint x="650" y="890" as="targetPoint" />
          </mxGeometry>
        </mxCell>
        <mxCell id="eO2MeErz_MEfpHY6lwUO-1" value="Đăng nhập" style="ellipse;whiteSpace=wrap;html=1;" parent="1" vertex="1">
          <mxGeometry x="973.75" y="770" width="102.5" height="40" as="geometry" />
        </mxCell>
        <mxCell id="eO2MeErz_MEfpHY6lwUO-2" value="" style="endArrow=none;html=1;rounded=0;" parent="1" source="eO2MeErz_MEfpHY6lwUO-1" target="0ZbLYWZXubwOvFgK9dOz-4" edge="1">
          <mxGeometry width="50" height="50" relative="1" as="geometry">
            <mxPoint x="880" y="770" as="sourcePoint" />
            <mxPoint x="930" y="720" as="targetPoint" />
          </mxGeometry>
        </mxCell>
        <mxCell id="eO2MeErz_MEfpHY6lwUO-3" value="" style="endArrow=none;html=1;rounded=0;" parent="1" source="eO2MeErz_MEfpHY6lwUO-1" target="0ZbLYWZXubwOvFgK9dOz-3" edge="1">
          <mxGeometry width="50" height="50" relative="1" as="geometry">
            <mxPoint x="880" y="770" as="sourcePoint" />
            <mxPoint x="930" y="720" as="targetPoint" />
          </mxGeometry>
        </mxCell>
        <mxCell id="eO2MeErz_MEfpHY6lwUO-4" value="&amp;lt;&amp;lt;include&amp;gt;&amp;gt;" style="endArrow=open;endSize=12;dashed=1;html=1;rounded=0;entryX=0.007;entryY=0.65;entryDx=0;entryDy=0;entryPerimeter=0;" parent="1" source="0ZbLYWZXubwOvFgK9dOz-24" target="0ZbLYWZXubwOvFgK9dOz-29" edge="1">
          <mxGeometry x="-0.0091" width="160" relative="1" as="geometry">
            <mxPoint x="745" y="851" as="sourcePoint" />
            <mxPoint x="745" y="910" as="targetPoint" />
            <mxPoint as="offset" />
          </mxGeometry>
        </mxCell>
      </root>
    </mxGraphModel>
  </diagram>
</mxfile>
